M48
;Layer_Color=9474304
;FILE_FORMAT=2:5
INCH,LZ
;TYPE=PLATED
T1F00S00C0.01181
T2F00S00C0.02756
T3F00S00C0.03150
T4F00S00C0.03898
T5F00S00C0.03937
T6F00S00C0.06693
;TYPE=NON_PLATED
T7F00S00C0.01968
T8F00S00C0.11811
%
T01
X0164567Y0034252
X0175984Y0035433
X0200787Y0092126
X0212205Y0093307
X018622Y0139764
X0194488Y0202756
X0120472Y0208662
X0085039Y0180709
X0087008Y0128347
X0065354Y0132283
X0059842Y0081102
X0090158Y0079528
X009536Y0075191
X0123228Y0074803
X0120472Y0064915
X0137402Y0084252
X0130709Y009252
X0125197Y009685
T02
X0152252Y0029921
X0224126
X022452Y0097638
X0204544Y012185
Y0127756
Y0133661
Y0139567
X0176164Y0202953
Y0208858
X0152646Y0097638
X0176164Y0214764
Y0220669
T03
X0050394Y0033807
Y0041709
Y0049606
X0077165Y0153543
X0087165
X0049213Y0154331
Y0146429
Y0138531
Y013063
X0050394Y0073307
Y0065405
Y0057508
Y0190524
Y0198425
Y0206323
Y0214224
T04
X0172638Y0132874
X0190354
Y0158465
X0172638
X0190354Y0184055
X0208071
Y0209646
X0190354
T05
X0176772Y0047047
X0184646
X019252
X0200394
X02Y0080512
X0192126
X0184252
X0176378
T06
X009063Y0057874
X011063
X013063
X0124336Y0144095
X0104336
X0144336
X0138504Y019329
X0118504
X0098504
T07
X000315Y0022441
X0007087
X0011024
X0014961
X0018898
X007559Y0022441
X0079527
X0083464
X0087402
X0091339
X014252Y0055512
X0146063
X0180315Y0022441
X0184252
X0188189
X0192126
X0196063
X0237008Y0022835
X0240945
X0244882
X0248819
X0252756
X0231102Y0035827
Y0039764
Y0043701
Y0047638
Y0051575
Y0078347
Y0082284
Y0086221
Y0090158
Y0094095
X0228346Y0131496
X0225197
Y0135433
X0228346
Y013937
X0225197
Y0143307
X0228346
Y0147244
X0225197
X0225197Y0193307
X0228346
Y0197244
X0225197
Y0201181
X0228346
Y0205118
X0225197
Y0209055
X0228346
X0198425Y0177165
X0194488
X0190551
X0186614
X0182677
X0181496Y0165354
X0185433
X018937
X0193307
X0197244
X0198425Y011063
X0194488
X0190551
X0186614
X0182677
Y0104724
X0186614
X0190551
X0194488
X0198425
X0196063Y0067716
X0192126
X0188189
X0184252
X0180315
Y0059842
X0184252
X0188189
X0192126
X0196063
X0146063Y0059449
X014252
Y0063386
X0146063
Y0067323
X014252
Y007126
X0146063
X0152362Y0129921
X0155512
Y0133858
X0152362
Y0137795
X0155512
Y0141732
X0152362
Y0145669
X0155512
Y0193701
X0152362
Y0197638
X0155512
Y0201575
X0152362
Y0205512
X0155512
Y0209449
X0152362
X0091732Y017126
Y016811
X0087795
Y017126
X0083858
Y016811
X0079921
Y017126
X0075984
Y016811
X007559Y010748
Y0104331
X0079527
Y010748
X0083464
Y0104331
X0087402
Y010748
X0091339
Y0104331
X0023228Y0129921
Y0133858
Y0137795
Y0141732
Y0145669
X0023622Y0193701
Y0197638
Y0201575
Y0205512
Y0209449
X0022835Y0072047
Y006811
Y0064173
Y0060236
Y0056299
X0024016Y0237402
Y0241339
Y0245276
Y0249213
Y025315
X0075984Y023189
X0079921
X0083858
X0087795
X0091732
X0182283Y023189
X0186221
X0190157
X0194095
X0198031
X0227953Y0237402
Y0241339
Y0245276
Y0249213
Y025315
T08
X0132283Y0032283
X015748Y0048031
X0219291
X0219291Y0079527
X015748
X0165354Y0119685
X0137795Y0158268
X0170079Y0186614
X021063Y0155905
X006811Y0182677
X0062579Y0116595
X0033465Y0094882
X0140476Y022237
X0215354Y0222835
M30
