G04*
G04 #@! TF.GenerationSoftware,Altium Limited,Altium Designer,20.1.8 (145)*
G04*
G04 Layer_Color=16711935*
%FSLAX25Y25*%
%MOIN*%
G70*
G04*
G04 #@! TF.SameCoordinates,DC3DFF13-D98B-404C-8633-9541E25296ED*
G04*
G04*
G04 #@! TF.FilePolarity,Positive*
G04*
G01*
G75*
%ADD38C,0.00787*%
D38*
X73622Y103937D02*
G03*
X73622Y107874I0J1969D01*
G01*
X22441Y107874D02*
G03*
X22441Y103937I0J-1969D01*
G01*
X93307Y107874D02*
G03*
X93307Y103937I0J-1969D01*
G01*
X146457Y105905D02*
G03*
X142520Y105905I-1969J-0D01*
G01*
X142520Y73228D02*
G03*
X146457Y73228I1969J0D01*
G01*
X146457Y53543D02*
G03*
X142520Y53543I-1969J-0D01*
G01*
X73622Y19685D02*
G03*
X73622Y23622I0J1969D01*
G01*
X22441Y23622D02*
G03*
X22441Y19685I0J-1969D01*
G01*
X93307Y23622D02*
G03*
X93307Y19685I0J-1969D01*
G01*
X142520Y21654D02*
G03*
X146457Y21654I1969J0D01*
G01*
X23622Y105905D02*
G03*
X19685Y105905I-1969J0D01*
G01*
X19685Y74016D02*
G03*
X23622Y74016I1969J0D01*
G01*
X23622Y127992D02*
G03*
X19685Y127992I-1969J0D01*
G01*
Y105905D02*
G03*
X23622Y105905I1969J0D01*
G01*
X19934Y147556D02*
G03*
X23871Y147556I1969J0D01*
G01*
Y169643D02*
G03*
X19934Y169643I-1969J0D01*
G01*
X151719Y105948D02*
G03*
X155656Y105948I1969J0D01*
G01*
Y128035D02*
G03*
X151719Y128035I-1969J-0D01*
G01*
X151575Y147598D02*
G03*
X155512Y147598I1969J0D01*
G01*
X156299Y103937D02*
G03*
X156299Y107874I0J1969D01*
G01*
X153937Y167717D02*
G03*
X153937Y171654I0J1969D01*
G01*
X93701D02*
G03*
X93701Y167717I0J-1969D01*
G01*
X22835Y171653D02*
G03*
X22835Y167717I0J-1969D01*
G01*
X74016Y167717D02*
G03*
X74016Y171654I0J1969D01*
G01*
X154082Y231538D02*
G03*
X154082Y235475I0J1969D01*
G01*
X93701Y235433D02*
G03*
X93701Y231496I0J-1969D01*
G01*
X22835Y235433D02*
G03*
X22835Y231496I0J-1969D01*
G01*
X74016Y231496D02*
G03*
X74016Y235433I0J1969D01*
G01*
X24265Y233422D02*
G03*
X20328Y233422I-1969J0D01*
G01*
Y211335D02*
G03*
X24265Y211335I1969J0D01*
G01*
X20079Y169685D02*
G03*
X24016Y169685I1969J0D01*
G01*
Y191772D02*
G03*
X20079Y191772I-1969J0D01*
G01*
X151719Y169727D02*
G03*
X155656Y169727I1969J0D01*
G01*
Y191814D02*
G03*
X151719Y191814I-1969J-0D01*
G01*
X155905Y233465D02*
G03*
X151969Y233465I-1969J-0D01*
G01*
Y211378D02*
G03*
X155905Y211378I1969J0D01*
G01*
X200354Y177559D02*
G03*
X200354Y173622I0J-1969D01*
G01*
X226378D02*
G03*
X226378Y177559I-0J1969D01*
G01*
X180791Y173871D02*
G03*
X180791Y177808I-0J1969D01*
G01*
X153937D02*
G03*
X153937Y173871I0J-1969D01*
G01*
X224803Y210984D02*
G03*
X228740Y210984I1969J0D01*
G01*
Y233071D02*
G03*
X224803Y233071I-1969J-0D01*
G01*
X228491Y191420D02*
G03*
X224554Y191420I-1969J-0D01*
G01*
Y169334D02*
G03*
X228491Y169334I1969J0D01*
G01*
X226772Y231247D02*
G03*
X226772Y235184I0J1969D01*
G01*
X199918D02*
G03*
X199918Y231247I0J-1969D01*
G01*
X154331Y235433D02*
G03*
X154331Y231496I0J-1969D01*
G01*
X180355D02*
G03*
X180355Y235433I0J1969D01*
G01*
X179567Y164961D02*
G03*
X179567Y168898I0J1969D01*
G01*
X153543D02*
G03*
X153543Y164961I0J-1969D01*
G01*
X199131Y168649D02*
G03*
X199131Y164711I0J-1969D01*
G01*
X225984D02*
G03*
X225984Y168649I0J1969D01*
G01*
X224554Y107522D02*
G03*
X228491Y107522I1969J0D01*
G01*
Y129610D02*
G03*
X224554Y129610I-1969J-0D01*
G01*
X228740Y171260D02*
G03*
X224803Y171260I-1969J-0D01*
G01*
Y149173D02*
G03*
X228740Y149173I1969J0D01*
G01*
X179131Y103792D02*
G03*
X179131Y111273I-194J3740D01*
G01*
X155326Y111411D02*
G03*
X155326Y103931I194J-3740D01*
G01*
X201575Y111417D02*
G03*
X201575Y103937I194J-3740D01*
G01*
X230315Y96457D02*
G03*
X234252Y96457I1969J0D01*
G01*
Y108268D02*
G03*
X230315Y108268I-1969J-0D01*
G01*
X230708Y103767D02*
G03*
X230708Y111248I-194J3740D01*
G01*
X234252Y75984D02*
G03*
X230315Y75984I-1969J-0D01*
G01*
Y64173D02*
G03*
X234252Y64173I1969J0D01*
G01*
X230315Y21654D02*
G03*
X234252Y21654I1969J0D01*
G01*
Y33465D02*
G03*
X230315Y33465I-1969J-0D01*
G01*
X234252Y65748D02*
G03*
X230315Y65748I-1969J-0D01*
G01*
Y53937D02*
G03*
X234252Y53937I1969J0D01*
G01*
X144055Y23622D02*
G03*
X144055Y19685I0J-1969D01*
G01*
X177559D02*
G03*
X177559Y23622I0J1969D01*
G01*
X198779D02*
G03*
X198779Y19685I0J-1969D01*
G01*
X176375Y59252D02*
G03*
X176375Y68307I3J4528D01*
G01*
X151574Y68441D02*
G03*
X151574Y59386I-3J-4528D01*
G01*
X229524Y59252D02*
G03*
X229524Y68307I3J4528D01*
G01*
X199997Y68469D02*
G03*
X200003Y59414I3J-4528D01*
G01*
X23622Y54331D02*
G03*
X19685Y54331I-1969J0D01*
G01*
X19685Y21654D02*
G03*
X23622Y21654I1969J0D01*
G01*
X22441Y103937D02*
X73622D01*
X22441Y107874D02*
X73622D01*
X146457Y73228D02*
Y105905D01*
X142520Y73228D02*
Y105905D01*
X146457Y53543D02*
X146457Y21654D01*
X22441Y19685D02*
X73622D01*
X22441Y23622D02*
X73622D01*
X93307Y19685D02*
X144488D01*
X93307Y23622D02*
X144488D01*
X142520Y21654D02*
Y53543D01*
X23622Y106101D02*
X23622Y127992D01*
X19685Y105905D02*
Y127992D01*
X23622Y74016D02*
Y105905D01*
X19685Y105905D02*
X19685Y74016D01*
X19934Y147556D02*
Y169643D01*
X23871Y147752D02*
X23871Y169643D01*
X151719Y105948D02*
X151719Y127839D01*
X155656Y105948D02*
Y128035D01*
X93307Y107874D02*
X156299D01*
X93307Y103937D02*
X156299Y103937D01*
X93701Y167717D02*
X154082D01*
X93701Y171654D02*
X154082D01*
X22835Y171653D02*
X74016D01*
X22835Y167717D02*
X74016D01*
X93701Y231496D02*
X154082D01*
X93701Y235433D02*
X154082D01*
X22835Y235433D02*
X74016D01*
X22835Y231496D02*
X74016D01*
X24265Y211531D02*
X24265Y233422D01*
X20328Y211335D02*
Y233422D01*
X20079Y169685D02*
Y191772D01*
X24016Y169881D02*
X24016Y191772D01*
X151719Y169727D02*
X151719Y191618D01*
X155656Y169727D02*
Y191814D01*
X155905Y211378D02*
Y233465D01*
X151969Y211378D02*
X151969Y233269D01*
X200354Y177559D02*
X226378Y177559D01*
X200354Y173622D02*
X226378D01*
X153937Y173871D02*
X180791D01*
X153937Y177808D02*
X180595Y177808D01*
X155512Y147598D02*
Y169685D01*
X151575Y147598D02*
X151575Y169489D01*
X224803Y210984D02*
X224803Y232875D01*
X228740Y210984D02*
Y233071D01*
X228491Y169334D02*
Y191420D01*
X224554Y169334D02*
X224554Y191225D01*
X200114Y231247D02*
X226772Y231247D01*
X199918Y235184D02*
X226772D01*
X154331Y235433D02*
X180355D01*
X154331Y231496D02*
X180355Y231496D01*
X153543Y164961D02*
X179567Y164961D01*
X153543Y168898D02*
X179567D01*
X199131Y168649D02*
X225984D01*
X199326Y164711D02*
X225984Y164711D01*
X155326Y111411D02*
X179131Y111273D01*
X224554Y107522D02*
X224554Y129414D01*
X228491Y107522D02*
Y129610D01*
X228740Y149173D02*
Y171260D01*
X224803Y149173D02*
X224803Y171064D01*
X155326Y103931D02*
X179131Y103792D01*
X201575Y103937D02*
X230315Y103813D01*
X201575Y111417D02*
X230708Y111248D01*
X230315Y96457D02*
Y108268D01*
X234252Y96457D02*
Y108268D01*
Y64173D02*
Y75984D01*
X230315Y64173D02*
Y75984D01*
Y21654D02*
Y33465D01*
X234252Y21654D02*
Y33465D01*
Y53937D02*
Y65748D01*
X230315Y53937D02*
Y65748D01*
X144055Y23622D02*
X177559D01*
X144055Y19685D02*
X177559Y19685D01*
X198779Y19685D02*
X232283Y19685D01*
X198779Y23622D02*
X232283D01*
X151572Y59386D02*
X176379Y59242D01*
X151574Y68441D02*
X176379Y68297D01*
X200000Y59414D02*
X229529Y59242D01*
X199997Y68469D02*
X229529Y68297D01*
X23622Y21654D02*
Y54331D01*
X19685Y21654D02*
Y54331D01*
X394Y0D02*
Y255512D01*
X0Y255906D02*
X394Y255512D01*
X0Y255906D02*
X255512D01*
Y0D02*
Y255906D01*
X394Y0D02*
X255512D01*
M02*
