G04*
G04 #@! TF.GenerationSoftware,Altium Limited,Altium Designer,20.1.8 (145)*
G04*
G04 Layer_Color=8388736*
%FSLAX25Y25*%
%MOIN*%
G70*
G04*
G04 #@! TF.SameCoordinates,DC3DFF13-D98B-404C-8633-9541E25296ED*
G04*
G04*
G04 #@! TF.FilePolarity,Negative*
G04*
G01*
G75*
%ADD22C,0.04724*%
%ADD23R,0.04724X0.04724*%
%ADD32R,0.04724X0.04724*%
%ADD44R,0.02769X0.04540*%
%ADD45R,0.03950X0.03950*%
G04:AMPARAMS|DCode=46|XSize=39.5mil|YSize=39.5mil|CornerRadius=11.87mil|HoleSize=0mil|Usage=FLASHONLY|Rotation=180.000|XOffset=0mil|YOffset=0mil|HoleType=Round|Shape=RoundedRectangle|*
%AMROUNDEDRECTD46*
21,1,0.03950,0.01575,0,0,180.0*
21,1,0.01575,0.03950,0,0,180.0*
1,1,0.02375,-0.00787,0.00787*
1,1,0.02375,0.00787,0.00787*
1,1,0.02375,0.00787,-0.00787*
1,1,0.02375,-0.00787,-0.00787*
%
%ADD46ROUNDEDRECTD46*%
G04:AMPARAMS|DCode=47|XSize=27.69mil|YSize=45.4mil|CornerRadius=8.92mil|HoleSize=0mil|Usage=FLASHONLY|Rotation=180.000|XOffset=0mil|YOffset=0mil|HoleType=Round|Shape=RoundedRectangle|*
%AMROUNDEDRECTD47*
21,1,0.02769,0.02756,0,0,180.0*
21,1,0.00984,0.04540,0,0,180.0*
1,1,0.01784,-0.00492,0.01378*
1,1,0.01784,0.00492,0.01378*
1,1,0.01784,0.00492,-0.01378*
1,1,0.01784,-0.00492,-0.01378*
%
%ADD47ROUNDEDRECTD47*%
%ADD48R,0.04540X0.02769*%
G04:AMPARAMS|DCode=49|XSize=27.69mil|YSize=45.4mil|CornerRadius=8.92mil|HoleSize=0mil|Usage=FLASHONLY|Rotation=90.000|XOffset=0mil|YOffset=0mil|HoleType=Round|Shape=RoundedRectangle|*
%AMROUNDEDRECTD49*
21,1,0.02769,0.02756,0,0,90.0*
21,1,0.00984,0.04540,0,0,90.0*
1,1,0.01784,0.01378,0.00492*
1,1,0.01784,0.01378,-0.00492*
1,1,0.01784,-0.01378,-0.00492*
1,1,0.01784,-0.01378,0.00492*
%
%ADD49ROUNDEDRECTD49*%
G04:AMPARAMS|DCode=50|XSize=39.5mil|YSize=39.5mil|CornerRadius=11.87mil|HoleSize=0mil|Usage=FLASHONLY|Rotation=90.000|XOffset=0mil|YOffset=0mil|HoleType=Round|Shape=RoundedRectangle|*
%AMROUNDEDRECTD50*
21,1,0.03950,0.01575,0,0,90.0*
21,1,0.01575,0.03950,0,0,90.0*
1,1,0.02375,0.00787,0.00787*
1,1,0.02375,0.00787,-0.00787*
1,1,0.02375,-0.00787,-0.00787*
1,1,0.02375,-0.00787,0.00787*
%
%ADD50ROUNDEDRECTD50*%
%ADD51R,0.03950X0.03950*%
%ADD52R,0.02769X0.04343*%
%ADD53C,0.00800*%
%ADD54C,0.00922*%
%ADD55C,0.06706*%
%ADD56R,0.06706X0.06706*%
%ADD57C,0.12611*%
%ADD58R,0.05328X0.05328*%
%ADD59C,0.05328*%
%ADD60R,0.10642X0.10642*%
%ADD61C,0.10642*%
%ADD62R,0.06706X0.06706*%
G04:AMPARAMS|DCode=63|XSize=106.42mil|YSize=106.42mil|CornerRadius=28.61mil|HoleSize=0mil|Usage=FLASHONLY|Rotation=270.000|XOffset=0mil|YOffset=0mil|HoleType=Round|Shape=RoundedRectangle|*
%AMROUNDEDRECTD63*
21,1,0.10642,0.04921,0,0,270.0*
21,1,0.04921,0.10642,0,0,270.0*
1,1,0.05721,-0.02461,-0.02461*
1,1,0.05721,-0.02461,0.02461*
1,1,0.05721,0.02461,0.02461*
1,1,0.05721,0.02461,-0.02461*
%
%ADD63ROUNDEDRECTD63*%
%ADD64C,0.05524*%
D22*
X152252Y29921D02*
D03*
X224520Y97638D02*
D03*
X176164Y214764D02*
D03*
Y208858D02*
D03*
Y202953D02*
D03*
X204544Y127756D02*
D03*
Y133661D02*
D03*
Y139567D02*
D03*
D23*
X224126Y29921D02*
D03*
X152646Y97638D02*
D03*
D32*
X176164Y220669D02*
D03*
X204544Y121850D02*
D03*
D44*
X188779Y29921D02*
D03*
X183661D02*
D03*
X201772D02*
D03*
X196654D02*
D03*
X176181D02*
D03*
X171063D02*
D03*
X187992Y97638D02*
D03*
X193110D02*
D03*
X175000D02*
D03*
X180118D02*
D03*
X200590D02*
D03*
X205709D02*
D03*
X70588Y79528D02*
D03*
X65469D02*
D03*
X111614Y34252D02*
D03*
X116732D02*
D03*
X101351Y79528D02*
D03*
X96233D02*
D03*
X85969D02*
D03*
X80851D02*
D03*
X80512Y34252D02*
D03*
X85630D02*
D03*
D45*
X209646Y29921D02*
D03*
X167126Y97638D02*
D03*
X197244Y221260D02*
D03*
X183465Y121260D02*
D03*
X71457Y34252D02*
D03*
D46*
X215551Y29921D02*
D03*
X161220Y97638D02*
D03*
X191339Y221260D02*
D03*
X189370Y121260D02*
D03*
X65551Y34252D02*
D03*
D47*
X158465Y29921D02*
D03*
X163583D02*
D03*
X218307Y97638D02*
D03*
X213189D02*
D03*
X101219Y34252D02*
D03*
X96101D02*
D03*
D48*
X115617Y211221D02*
D03*
Y216339D02*
D03*
X125591Y211221D02*
D03*
Y216339D02*
D03*
X105643D02*
D03*
Y211221D02*
D03*
X85039Y189961D02*
D03*
Y184843D02*
D03*
X191732Y193504D02*
D03*
Y198622D02*
D03*
X201181Y198622D02*
D03*
Y193504D02*
D03*
X211024Y198622D02*
D03*
Y193504D02*
D03*
X188976Y149016D02*
D03*
Y143898D02*
D03*
X179527Y143898D02*
D03*
Y149016D02*
D03*
X169685Y143898D02*
D03*
Y149016D02*
D03*
X99606Y159252D02*
D03*
Y154134D02*
D03*
X118898Y159252D02*
D03*
Y154134D02*
D03*
X79921Y118701D02*
D03*
Y123819D02*
D03*
X99606Y123819D02*
D03*
Y118701D02*
D03*
D49*
X84859Y198031D02*
D03*
Y203150D02*
D03*
X216929Y205922D02*
D03*
Y211040D02*
D03*
X163779Y136597D02*
D03*
Y131479D02*
D03*
X79921Y134449D02*
D03*
Y139567D02*
D03*
D50*
X95669Y210039D02*
D03*
X60942Y154134D02*
D03*
D51*
X95669Y215945D02*
D03*
X60942Y160039D02*
D03*
D52*
X111614Y79528D02*
D03*
X116732D02*
D03*
X133268D02*
D03*
X128150D02*
D03*
D53*
X24016Y253150D02*
D03*
X252756Y22835D02*
D03*
X18898Y22441D02*
D03*
X196063Y67716D02*
D03*
Y59842D02*
D03*
X180315Y22441D02*
D03*
X231102Y51575D02*
D03*
Y94095D02*
D03*
X146063Y71260D02*
D03*
X198425Y104724D02*
D03*
X228346Y147244D02*
D03*
X225197D02*
D03*
X198425Y110630D02*
D03*
X181496Y165354D02*
D03*
X155512Y145669D02*
D03*
X182283Y231890D02*
D03*
X225197Y209055D02*
D03*
X228346D02*
D03*
X198425Y177165D02*
D03*
X155512Y209449D02*
D03*
X227953Y253150D02*
D03*
X152362Y209449D02*
D03*
X23622Y193701D02*
D03*
X75984Y231890D02*
D03*
Y168110D02*
D03*
X91732Y171260D02*
D03*
X152362Y145669D02*
D03*
X23228Y129921D02*
D03*
X91339Y107480D02*
D03*
X22835Y56299D02*
D03*
X91339Y22441D02*
D03*
X142520Y71260D02*
D03*
X75590Y104331D02*
D03*
D54*
X24016Y241339D02*
D03*
Y237402D02*
D03*
Y245276D02*
D03*
Y249213D02*
D03*
X240945Y22835D02*
D03*
X237008D02*
D03*
X244882D02*
D03*
X248819D02*
D03*
X7087Y22441D02*
D03*
X3150D02*
D03*
X11024D02*
D03*
X14961D02*
D03*
X192126Y67716D02*
D03*
X188189D02*
D03*
X180315D02*
D03*
X184252D02*
D03*
X192126Y59842D02*
D03*
X188189D02*
D03*
X180315D02*
D03*
X184252D02*
D03*
X192126Y22441D02*
D03*
X196063D02*
D03*
X188189D02*
D03*
X184252D02*
D03*
X231102Y47638D02*
D03*
Y43701D02*
D03*
Y35827D02*
D03*
Y39764D02*
D03*
Y82284D02*
D03*
Y78347D02*
D03*
Y86221D02*
D03*
Y90158D02*
D03*
X146063Y59449D02*
D03*
Y55512D02*
D03*
Y63386D02*
D03*
Y67323D02*
D03*
X186614Y104724D02*
D03*
X182677D02*
D03*
X190551D02*
D03*
X194488D02*
D03*
X228346Y143307D02*
D03*
Y139370D02*
D03*
Y131496D02*
D03*
Y135433D02*
D03*
X225197D02*
D03*
Y131496D02*
D03*
Y139370D02*
D03*
Y143307D02*
D03*
X194488Y110630D02*
D03*
X190551D02*
D03*
X182677D02*
D03*
X186614D02*
D03*
X185433Y165354D02*
D03*
X189370D02*
D03*
X197244D02*
D03*
X193307D02*
D03*
X155512Y133858D02*
D03*
Y129921D02*
D03*
Y137795D02*
D03*
Y141732D02*
D03*
X194095Y231890D02*
D03*
X198031D02*
D03*
X190157D02*
D03*
X186221D02*
D03*
X225197Y205118D02*
D03*
Y201181D02*
D03*
Y193307D02*
D03*
Y197244D02*
D03*
X228346D02*
D03*
Y193307D02*
D03*
Y201181D02*
D03*
Y205118D02*
D03*
X194488Y177165D02*
D03*
X190551D02*
D03*
X182677D02*
D03*
X186614D02*
D03*
X155512Y205512D02*
D03*
Y201575D02*
D03*
Y193701D02*
D03*
Y197638D02*
D03*
X227953Y241339D02*
D03*
Y237402D02*
D03*
Y245276D02*
D03*
Y249213D02*
D03*
X152362Y197638D02*
D03*
Y193701D02*
D03*
Y201575D02*
D03*
Y205512D02*
D03*
X23622D02*
D03*
Y209449D02*
D03*
Y201575D02*
D03*
Y197638D02*
D03*
X79921Y231890D02*
D03*
X83858D02*
D03*
X91732D02*
D03*
X87795D02*
D03*
X79921Y168110D02*
D03*
X83858D02*
D03*
X91732D02*
D03*
X87795D02*
D03*
X79921Y171260D02*
D03*
X75984D02*
D03*
X83858D02*
D03*
X87795D02*
D03*
X152362Y133858D02*
D03*
Y129921D02*
D03*
Y137795D02*
D03*
Y141732D02*
D03*
X23228Y133858D02*
D03*
Y137795D02*
D03*
Y145669D02*
D03*
Y141732D02*
D03*
X87402Y107480D02*
D03*
X83464D02*
D03*
X75590D02*
D03*
X79527D02*
D03*
X22835Y68110D02*
D03*
Y72047D02*
D03*
Y64173D02*
D03*
Y60236D02*
D03*
X87402Y22441D02*
D03*
X83464D02*
D03*
X75590D02*
D03*
X79527D02*
D03*
X142520Y67323D02*
D03*
Y63386D02*
D03*
Y55512D02*
D03*
Y59449D02*
D03*
X87402Y104331D02*
D03*
X91339D02*
D03*
X83464D02*
D03*
X79527D02*
D03*
D55*
X176772Y47047D02*
D03*
X192520D02*
D03*
X184646D02*
D03*
X200000Y80512D02*
D03*
X184252D02*
D03*
X192126D02*
D03*
X208071Y209646D02*
D03*
Y184055D02*
D03*
X190354D02*
D03*
X172638Y132874D02*
D03*
Y158465D02*
D03*
X190354D02*
D03*
D56*
X200394Y47047D02*
D03*
X176378Y80512D02*
D03*
D57*
X219291Y48031D02*
D03*
X157480D02*
D03*
X157480Y79527D02*
D03*
X219291D02*
D03*
X140476Y222370D02*
D03*
X68110Y182677D02*
D03*
X170079Y186614D02*
D03*
X215354Y222835D02*
D03*
X210630Y155905D02*
D03*
X165354Y119685D02*
D03*
X33465Y94882D02*
D03*
X132283Y32283D02*
D03*
X62579Y116595D02*
D03*
X137795Y158268D02*
D03*
D58*
X50394Y214224D02*
D03*
Y73307D02*
D03*
X49213Y154331D02*
D03*
D59*
X50394Y206323D02*
D03*
Y198425D02*
D03*
Y190524D02*
D03*
Y33807D02*
D03*
Y41709D02*
D03*
Y49606D02*
D03*
Y57508D02*
D03*
Y65405D02*
D03*
X49213Y146429D02*
D03*
Y138531D02*
D03*
Y130630D02*
D03*
D60*
X98504Y193290D02*
D03*
X90630Y57874D02*
D03*
X124336Y144095D02*
D03*
X144336D02*
D03*
D61*
X118504Y193290D02*
D03*
X138504D02*
D03*
X130630Y57874D02*
D03*
X110630D02*
D03*
D62*
X190354Y209646D02*
D03*
X190354Y132874D02*
D03*
D63*
X104336Y144095D02*
D03*
D64*
X87165Y153543D02*
D03*
X77165D02*
D03*
M02*
