G04*
G04 #@! TF.GenerationSoftware,Altium Limited,Altium Designer,20.1.8 (145)*
G04*
G04 Layer_Physical_Order=2*
G04 Layer_Color=16711680*
%FSLAX25Y25*%
%MOIN*%
G70*
G04*
G04 #@! TF.SameCoordinates,DC3DFF13-D98B-404C-8633-9541E25296ED*
G04*
G04*
G04 #@! TF.FilePolarity,Positive*
G04*
G01*
G75*
%ADD11R,0.03150X0.03150*%
G04:AMPARAMS|DCode=12|XSize=31.5mil|YSize=31.5mil|CornerRadius=7.87mil|HoleSize=0mil|Usage=FLASHONLY|Rotation=180.000|XOffset=0mil|YOffset=0mil|HoleType=Round|Shape=RoundedRectangle|*
%AMROUNDEDRECTD12*
21,1,0.03150,0.01575,0,0,180.0*
21,1,0.01575,0.03150,0,0,180.0*
1,1,0.01575,-0.00787,0.00787*
1,1,0.01575,0.00787,0.00787*
1,1,0.01575,0.00787,-0.00787*
1,1,0.01575,-0.00787,-0.00787*
%
%ADD12ROUNDEDRECTD12*%
%ADD14C,0.01000*%
%ADD19C,0.01181*%
%ADD21C,0.00122*%
%ADD22C,0.04724*%
%ADD23R,0.04724X0.04724*%
%ADD24C,0.05906*%
%ADD25R,0.05906X0.05906*%
%ADD26C,0.11811*%
%ADD27C,0.02362*%
%ADD28R,0.04528X0.04528*%
%ADD29C,0.04528*%
%ADD30R,0.09843X0.09843*%
%ADD31C,0.09843*%
%ADD32R,0.04724X0.04724*%
%ADD33R,0.05906X0.05906*%
G04:AMPARAMS|DCode=34|XSize=98.43mil|YSize=98.43mil|CornerRadius=24.61mil|HoleSize=0mil|Usage=FLASHONLY|Rotation=270.000|XOffset=0mil|YOffset=0mil|HoleType=Round|Shape=RoundedRectangle|*
%AMROUNDEDRECTD34*
21,1,0.09843,0.04921,0,0,270.0*
21,1,0.04921,0.09843,0,0,270.0*
1,1,0.04921,-0.02461,-0.02461*
1,1,0.04921,-0.02461,0.02461*
1,1,0.04921,0.02461,0.02461*
1,1,0.04921,0.02461,-0.02461*
%
%ADD34ROUNDEDRECTD34*%
G04:AMPARAMS|DCode=35|XSize=33.47mil|YSize=31.5mil|CornerRadius=7.87mil|HoleSize=0mil|Usage=FLASHONLY|Rotation=270.000|XOffset=0mil|YOffset=0mil|HoleType=Round|Shape=RoundedRectangle|*
%AMROUNDEDRECTD35*
21,1,0.03347,0.01575,0,0,270.0*
21,1,0.01772,0.03150,0,0,270.0*
1,1,0.01575,-0.00787,-0.00886*
1,1,0.01575,-0.00787,0.00886*
1,1,0.01575,0.00787,0.00886*
1,1,0.01575,0.00787,-0.00886*
%
%ADD35ROUNDEDRECTD35*%
%ADD36R,0.03150X0.03347*%
G36*
X188989Y222728D02*
X188855Y222504D01*
X188583D01*
X188107Y222410D01*
X187703Y222140D01*
X182978Y217415D01*
X182709Y217012D01*
X182614Y216535D01*
Y211136D01*
X182585Y211116D01*
X181571Y210103D01*
X178888D01*
X178778Y210367D01*
X178298Y210992D01*
X177673Y211472D01*
X177508Y211541D01*
Y212082D01*
X177673Y212150D01*
X178298Y212630D01*
X178778Y213255D01*
X179079Y213983D01*
X179182Y214764D01*
X179079Y215545D01*
X178778Y216273D01*
X178368Y216807D01*
X178513Y217307D01*
X179527D01*
Y220169D01*
X172802D01*
Y217307D01*
X173815D01*
X173961Y216807D01*
X173551Y216273D01*
X173249Y215545D01*
X173146Y214764D01*
X173249Y213983D01*
X173551Y213255D01*
X174030Y212630D01*
X174655Y212150D01*
X174821Y212082D01*
Y211541D01*
X174655Y211472D01*
X174030Y210992D01*
X173551Y210367D01*
X173249Y209639D01*
X173146Y208858D01*
X173249Y208077D01*
X173551Y207349D01*
X174030Y206724D01*
X174655Y206245D01*
X174821Y206176D01*
Y205635D01*
X174655Y205566D01*
X174030Y205087D01*
X173551Y204462D01*
X173249Y203734D01*
X173146Y202953D01*
X173249Y202172D01*
X173551Y201444D01*
X174030Y200819D01*
X174655Y200339D01*
X175383Y200038D01*
X176164Y199935D01*
X176945Y200038D01*
X177673Y200339D01*
X178298Y200819D01*
X178778Y201444D01*
X179079Y202172D01*
X179182Y202953D01*
X179079Y203734D01*
X178778Y204462D01*
X178298Y205087D01*
X177673Y205566D01*
X177508Y205635D01*
Y206176D01*
X177673Y206245D01*
X178298Y206724D01*
X178778Y207349D01*
X178888Y207614D01*
X182087D01*
X182114Y207619D01*
X182614Y207209D01*
Y190551D01*
X182709Y190075D01*
X182978Y189671D01*
X185967Y186682D01*
X185776Y186221D01*
X176979D01*
X176644Y186591D01*
X176646Y186614D01*
X176520Y187895D01*
X176146Y189127D01*
X175539Y190263D01*
X174722Y191258D01*
X173727Y192075D01*
X172592Y192681D01*
X171360Y193055D01*
X170079Y193181D01*
Y223228D01*
X172802D01*
Y221169D01*
X179527D01*
Y223228D01*
X188706D01*
X188989Y222728D01*
D02*
G37*
G36*
X208790Y222858D02*
X208787Y222835D01*
X208913Y221553D01*
X209287Y220322D01*
X209894Y219186D01*
X210711Y218191D01*
X211706Y217374D01*
X212841Y216768D01*
X214073Y216394D01*
X214961Y216306D01*
Y186221D01*
X210925D01*
X210626Y186610D01*
X209878Y187185D01*
X209006Y187546D01*
X208071Y187669D01*
X207136Y187546D01*
X206264Y187185D01*
X205516Y186610D01*
X205217Y186221D01*
X193209D01*
X192910Y186610D01*
X192161Y187185D01*
X191290Y187546D01*
X190354Y187669D01*
X189419Y187546D01*
X188857Y187313D01*
X185103Y191067D01*
Y216020D01*
X188788Y219705D01*
X189414Y219624D01*
X189529Y219451D01*
X189998Y219137D01*
X190551Y219027D01*
X192126D01*
X192679Y219137D01*
X193148Y219451D01*
X193461Y219919D01*
X193571Y220473D01*
Y222047D01*
X193461Y222600D01*
X193376Y222728D01*
X193643Y223228D01*
X195039D01*
Y219055D01*
X196000D01*
Y206027D01*
X194561Y204588D01*
X194488Y204602D01*
X193782Y204462D01*
X193183Y204062D01*
X192782Y203463D01*
X192642Y202756D01*
X192782Y202049D01*
X193183Y201450D01*
X193782Y201050D01*
X194488Y200909D01*
X195195Y201050D01*
X195794Y201450D01*
X196194Y202049D01*
X196335Y202756D01*
X196320Y202828D01*
X198124Y204632D01*
X198394Y205036D01*
X198488Y205512D01*
Y219055D01*
X199449D01*
Y223228D01*
X208454D01*
X208790Y222858D01*
D02*
G37*
G36*
X133650Y223516D02*
X133537Y222370D01*
X133671Y221016D01*
X134066Y219715D01*
X134707Y218515D01*
X135570Y217463D01*
X136621Y216601D01*
X137821Y215959D01*
X139123Y215564D01*
X140476Y215431D01*
X140574Y215441D01*
X140945Y215105D01*
Y199355D01*
X140520Y199069D01*
X140126Y199252D01*
Y202047D01*
X140002Y202668D01*
X139651Y203194D01*
X129100Y213745D01*
X128573Y214097D01*
X127953Y214220D01*
X123443D01*
X123139Y214674D01*
X122548Y215070D01*
X121850Y215208D01*
X120276D01*
X119578Y215070D01*
X118987Y214674D01*
X118592Y214083D01*
X118453Y213386D01*
Y211811D01*
X118592Y211114D01*
X118820Y210772D01*
X118900Y210234D01*
X118418Y209512D01*
X118249Y208662D01*
X118418Y207810D01*
X118900Y207089D01*
X119621Y206607D01*
X120472Y206438D01*
X121323Y206607D01*
X122045Y207089D01*
X122527Y207810D01*
X122696Y208662D01*
X122527Y209512D01*
X122467Y209602D01*
X122548Y210127D01*
X123139Y210522D01*
X123443Y210977D01*
X127281D01*
X136882Y201376D01*
Y198986D01*
X136227Y198787D01*
X135198Y198238D01*
X134297Y197498D01*
X133557Y196596D01*
X133007Y195567D01*
X132668Y194451D01*
X132554Y193290D01*
X132668Y192130D01*
X133007Y191013D01*
X133557Y189985D01*
X134297Y189083D01*
X135198Y188343D01*
X136227Y187793D01*
X137343Y187455D01*
X138504Y187340D01*
X139665Y187455D01*
X140445Y187691D01*
X140945Y187330D01*
Y182677D01*
X106096D01*
X105905Y183139D01*
X110202Y187436D01*
X110553Y187962D01*
X110677Y188583D01*
Y205824D01*
X114876Y210024D01*
X117732D01*
Y215173D01*
X112583D01*
Y212317D01*
X107908Y207643D01*
X107557Y207117D01*
X107433Y206496D01*
Y189254D01*
X100856Y182677D01*
X86019Y182677D01*
X85890Y182763D01*
X85039Y182932D01*
X84188Y182763D01*
X84060Y182677D01*
X75049D01*
X75049Y182677D01*
X74916Y184031D01*
X74521Y185333D01*
X73880Y186532D01*
X73017Y187584D01*
X71965Y188447D01*
X70766Y189088D01*
X69464Y189483D01*
X68110Y189616D01*
X66756Y189483D01*
X65455Y189088D01*
X64255Y188447D01*
X63204Y187584D01*
X62341Y186532D01*
X61699Y185333D01*
X61305Y184031D01*
X61171Y182677D01*
X61171Y182677D01*
X44094D01*
Y224016D01*
X133303Y224016D01*
X133650Y223516D01*
D02*
G37*
G36*
X187799Y155909D02*
X188548Y155335D01*
X189419Y154974D01*
X190354Y154851D01*
X191290Y154974D01*
X191852Y155207D01*
X195606Y151453D01*
Y126500D01*
X191921Y122815D01*
X191295Y122896D01*
X191179Y123069D01*
X190710Y123382D01*
X190157Y123492D01*
X188583D01*
X188030Y123382D01*
X187561Y123069D01*
X187248Y122600D01*
X187138Y122047D01*
Y120472D01*
X187248Y119919D01*
X187333Y119791D01*
X187066Y119291D01*
X185669D01*
Y123465D01*
X184709D01*
Y136492D01*
X186148Y137932D01*
X186220Y137917D01*
X186927Y138058D01*
X187526Y138458D01*
X187926Y139057D01*
X188067Y139764D01*
X187926Y140470D01*
X187526Y141069D01*
X186927Y141470D01*
X186220Y141610D01*
X185514Y141470D01*
X184915Y141069D01*
X184514Y140470D01*
X184374Y139764D01*
X184388Y139691D01*
X182585Y137888D01*
X182315Y137484D01*
X182220Y137008D01*
Y123465D01*
X181260D01*
Y119291D01*
X172255D01*
X171919Y119662D01*
X171921Y119685D01*
X171795Y120966D01*
X171422Y122198D01*
X170815Y123334D01*
X169998Y124329D01*
X169003Y125145D01*
X167867Y125752D01*
X166636Y126126D01*
X165748Y126213D01*
Y156299D01*
X169783D01*
X170083Y155909D01*
X170831Y155335D01*
X171703Y154974D01*
X172638Y154851D01*
X173573Y154974D01*
X174445Y155335D01*
X175193Y155909D01*
X175492Y156299D01*
X187500D01*
X187799Y155909D01*
D02*
G37*
G36*
X125571Y150016D02*
X120578D01*
X108095Y162499D01*
X107598Y162830D01*
X107013Y162947D01*
X69685D01*
X69100Y162830D01*
X68604Y162499D01*
X55955Y149850D01*
X55623Y149354D01*
X55507Y148768D01*
Y142709D01*
X52859Y140061D01*
X52112D01*
X52064Y140178D01*
X51540Y140859D01*
X50859Y141382D01*
X50065Y141711D01*
X49213Y141823D01*
X48361Y141711D01*
X47567Y141382D01*
X46885Y140859D01*
X46362Y140178D01*
X46033Y139383D01*
X45921Y138531D01*
X46033Y137680D01*
X46362Y136885D01*
X46885Y136204D01*
X47567Y135681D01*
X48361Y135352D01*
X49213Y135240D01*
X50065Y135352D01*
X50859Y135681D01*
X51540Y136204D01*
X52064Y136885D01*
X52112Y137002D01*
X53492D01*
X54077Y137118D01*
X54574Y137450D01*
X58118Y140994D01*
X58449Y141490D01*
X58565Y142075D01*
Y148135D01*
X70319Y159888D01*
X106380D01*
X118415Y147853D01*
Y138173D01*
X125571D01*
Y112264D01*
X68543D01*
X68435Y112491D01*
X68361Y112764D01*
X68989Y113939D01*
X69384Y115241D01*
X69518Y116595D01*
X69384Y117948D01*
X68989Y119250D01*
X68348Y120450D01*
X67485Y121501D01*
X66434Y122364D01*
X65234Y123005D01*
X63932Y123400D01*
X62579Y123533D01*
X61225Y123400D01*
X59923Y123005D01*
X58724Y122364D01*
X57672Y121501D01*
X56809Y120450D01*
X56168Y119250D01*
X55773Y117948D01*
X55640Y116595D01*
X55773Y115241D01*
X56168Y113939D01*
X56796Y112764D01*
X56722Y112491D01*
X56615Y112264D01*
X27539D01*
Y164232D01*
X125571D01*
Y150016D01*
D02*
G37*
G36*
X204065Y155929D02*
X204063Y155905D01*
X204189Y154624D01*
X204563Y153392D01*
X205170Y152257D01*
X205986Y151262D01*
X206981Y150445D01*
X208117Y149838D01*
X209349Y149465D01*
X210630Y149338D01*
Y119291D01*
X207907D01*
Y121350D01*
X201182D01*
Y119291D01*
X192003D01*
X191720Y119791D01*
X191854Y120015D01*
X192126D01*
X192602Y120110D01*
X193006Y120380D01*
X197730Y125104D01*
X198000Y125508D01*
X198095Y125984D01*
Y131384D01*
X198124Y131404D01*
X199137Y132417D01*
X201821D01*
X201931Y132152D01*
X202410Y131527D01*
X203035Y131048D01*
X203201Y130979D01*
Y130438D01*
X203035Y130369D01*
X202410Y129890D01*
X201931Y129265D01*
X201629Y128537D01*
X201526Y127756D01*
X201629Y126975D01*
X201931Y126247D01*
X202341Y125713D01*
X202195Y125213D01*
X201182D01*
Y122350D01*
X207907D01*
Y125213D01*
X206893D01*
X206748Y125713D01*
X207158Y126247D01*
X207459Y126975D01*
X207562Y127756D01*
X207459Y128537D01*
X207158Y129265D01*
X206678Y129890D01*
X206053Y130369D01*
X205888Y130438D01*
Y130979D01*
X206053Y131048D01*
X206678Y131527D01*
X207158Y132152D01*
X207459Y132880D01*
X207562Y133661D01*
X207459Y134442D01*
X207158Y135170D01*
X206678Y135795D01*
X206053Y136275D01*
X205888Y136344D01*
Y136885D01*
X206053Y136953D01*
X206678Y137433D01*
X207158Y138058D01*
X207459Y138786D01*
X207562Y139567D01*
X207459Y140348D01*
X207158Y141076D01*
X206678Y141701D01*
X206053Y142181D01*
X205325Y142482D01*
X204544Y142585D01*
X203763Y142482D01*
X203035Y142181D01*
X202410Y141701D01*
X201931Y141076D01*
X201629Y140348D01*
X201526Y139567D01*
X201629Y138786D01*
X201931Y138058D01*
X202410Y137433D01*
X203035Y136953D01*
X203201Y136885D01*
Y136344D01*
X203035Y136275D01*
X202410Y135795D01*
X201931Y135170D01*
X201821Y134906D01*
X198622D01*
X198595Y134900D01*
X198095Y135311D01*
Y151969D01*
X198000Y152445D01*
X197730Y152848D01*
X194741Y155837D01*
X194933Y156299D01*
X203729D01*
X204065Y155929D01*
D02*
G37*
G36*
X227559Y101575D02*
Y100021D01*
X227059Y99851D01*
X226918Y100036D01*
X226215Y100575D01*
X225397Y100913D01*
X224520Y101029D01*
X223642Y100913D01*
X222824Y100575D01*
X222122Y100036D01*
X221583Y99333D01*
X221244Y98515D01*
X221128Y97638D01*
X221244Y96760D01*
X221583Y95942D01*
X222122Y95240D01*
X222824Y94701D01*
X222880Y94678D01*
Y93547D01*
X220572Y91239D01*
X220572Y91239D01*
X220276Y90943D01*
X214217D01*
X213632Y90827D01*
X213136Y90495D01*
X211571Y88931D01*
X193977D01*
X193611Y89478D01*
X193020Y89873D01*
X192323Y90011D01*
X190748D01*
X190051Y89873D01*
X189459Y89478D01*
X189064Y88886D01*
X188926Y88189D01*
Y86614D01*
X189064Y85917D01*
X189459Y85325D01*
X190051Y84930D01*
X190301Y84881D01*
Y84034D01*
X190132Y83965D01*
X189307Y83331D01*
X188673Y82505D01*
X188460Y81989D01*
X187918D01*
X187705Y82505D01*
X187071Y83331D01*
X186245Y83965D01*
X185284Y84363D01*
X185404Y84827D01*
X188205D01*
Y89976D01*
X188205D01*
X188255Y90455D01*
X188352Y90597D01*
X199186D01*
X199215Y90553D01*
X199936Y90071D01*
X200787Y89902D01*
X201638Y90071D01*
X202360Y90553D01*
X202842Y91275D01*
X203011Y92126D01*
X202842Y92977D01*
X202360Y93699D01*
X201638Y94181D01*
X200787Y94350D01*
X199936Y94181D01*
X199215Y93699D01*
X199186Y93655D01*
X187401D01*
X186816Y93539D01*
X186320Y93207D01*
X184548Y91436D01*
X184217Y90940D01*
X184100Y90354D01*
Y89976D01*
X183055D01*
Y84827D01*
X183100D01*
X183220Y84363D01*
X182258Y83965D01*
X181433Y83331D01*
X180831Y82546D01*
X180775Y82546D01*
X180331Y82881D01*
Y84465D01*
X176878D01*
Y80512D01*
Y76559D01*
X180331D01*
Y78143D01*
X180775Y78478D01*
X180831Y78477D01*
X181433Y77693D01*
X182258Y77059D01*
X183220Y76661D01*
X184252Y76525D01*
X185284Y76661D01*
X186245Y77059D01*
X187071Y77693D01*
X187705Y78518D01*
X187918Y79034D01*
X188460D01*
X188673Y78518D01*
X189307Y77693D01*
X190132Y77059D01*
X191094Y76661D01*
X192126Y76525D01*
X193158Y76661D01*
X194119Y77059D01*
X194945Y77693D01*
X195579Y78518D01*
X195792Y79034D01*
X196334D01*
X196547Y78518D01*
X197181Y77693D01*
X198006Y77059D01*
X198968Y76661D01*
X200000Y76525D01*
X201032Y76661D01*
X201993Y77059D01*
X202819Y77693D01*
X203453Y78518D01*
X203851Y79480D01*
X203987Y80512D01*
X203851Y81544D01*
X203453Y82505D01*
X202819Y83331D01*
X201993Y83965D01*
X201032Y84363D01*
X200000Y84499D01*
X198968Y84363D01*
X198006Y83965D01*
X197181Y83331D01*
X196547Y82505D01*
X196334Y81989D01*
X195792D01*
X195579Y82505D01*
X194945Y83331D01*
X194119Y83965D01*
X193360Y84279D01*
Y85158D01*
X193611Y85325D01*
X193977Y85872D01*
X212205D01*
X212790Y85989D01*
X213286Y86320D01*
X214850Y87884D01*
X220910D01*
X221495Y88001D01*
X221991Y88332D01*
X222735Y89076D01*
X222735Y89076D01*
X225491Y91832D01*
X225822Y92328D01*
X225939Y92913D01*
Y94586D01*
X226215Y94701D01*
X226918Y95240D01*
X227059Y95424D01*
X227559Y95254D01*
Y70079D01*
X148819D01*
Y94190D01*
X149283Y94275D01*
X149319Y94276D01*
X152146D01*
Y97638D01*
Y101000D01*
X149319D01*
X149283Y101000D01*
X148819Y101085D01*
Y101614D01*
X149173Y101967D01*
X227559Y101575D01*
D02*
G37*
G36*
X129570Y94382D02*
X129136Y94092D01*
X128654Y93371D01*
X128485Y92520D01*
X128654Y91669D01*
X129136Y90947D01*
X129858Y90465D01*
X130709Y90296D01*
X130890Y90147D01*
Y85245D01*
X132283D01*
Y79765D01*
X130890D01*
Y74418D01*
X132283D01*
Y64032D01*
X131898Y63702D01*
X131783Y63710D01*
X130630Y63824D01*
X129469Y63710D01*
X128353Y63371D01*
X127324Y62821D01*
X126423Y62081D01*
X125683Y61180D01*
X125133Y60151D01*
X124906Y59403D01*
X123074D01*
X120253Y62225D01*
X120438Y62618D01*
X120490Y62695D01*
X121323Y62861D01*
X122045Y63343D01*
X122527Y64064D01*
X122696Y64915D01*
X122527Y65766D01*
X122045Y66488D01*
X122002Y66517D01*
Y72398D01*
X122152Y72540D01*
X122453Y72733D01*
X123228Y72579D01*
X124079Y72749D01*
X124801Y73231D01*
X125120Y73708D01*
X125530Y73982D01*
X125966Y74418D01*
X128953D01*
Y79765D01*
X123803D01*
Y77307D01*
X123417Y76990D01*
X123228Y77027D01*
X122377Y76858D01*
X121656Y76376D01*
X121174Y75654D01*
X121004Y74803D01*
X121010Y74773D01*
X120550Y74527D01*
X118285Y76792D01*
Y82300D01*
X119330D01*
Y87450D01*
X114181D01*
Y82300D01*
X115226D01*
Y76158D01*
X115342Y75573D01*
X115674Y75077D01*
X118943Y71807D01*
Y66517D01*
X118900Y66488D01*
X118565Y65986D01*
X118065Y66138D01*
Y70473D01*
X117948Y71058D01*
X117617Y71554D01*
X112379Y76792D01*
Y82434D01*
X112926Y82799D01*
X113321Y83390D01*
X113460Y84088D01*
Y85662D01*
X113321Y86360D01*
X112926Y86951D01*
X112335Y87346D01*
X111637Y87485D01*
X110062D01*
X109365Y87346D01*
X108774Y86951D01*
X108408Y86404D01*
X63615D01*
X63030Y86288D01*
X62534Y85957D01*
X59893Y83316D01*
X59842Y83326D01*
X58991Y83157D01*
X58270Y82675D01*
X57788Y81953D01*
X57619Y81102D01*
X57788Y80251D01*
X58270Y79530D01*
X58991Y79048D01*
X59842Y78878D01*
X60694Y79048D01*
X61415Y79530D01*
X61897Y80251D01*
X62066Y81102D01*
X62056Y81153D01*
X64249Y83346D01*
X108408D01*
X108774Y82799D01*
X109320Y82434D01*
Y76158D01*
X109437Y75573D01*
X109768Y75077D01*
X115006Y69839D01*
Y63779D01*
X115122Y63194D01*
X115454Y62698D01*
X121360Y56793D01*
X121856Y56461D01*
X122441Y56345D01*
X124906D01*
X125133Y55597D01*
X125683Y54568D01*
X126423Y53667D01*
X127324Y52927D01*
X128353Y52377D01*
X129469Y52039D01*
X130630Y51924D01*
X131783Y52038D01*
X131898Y52046D01*
X132283Y51716D01*
Y39222D01*
X130930Y39089D01*
X129628Y38694D01*
X128428Y38053D01*
X127377Y37190D01*
X126514Y36138D01*
X125873Y34939D01*
X125478Y33637D01*
X125345Y32283D01*
X53745D01*
X53468Y32699D01*
X53574Y32955D01*
X53686Y33807D01*
X53574Y34659D01*
X53245Y35453D01*
X52721Y36135D01*
X52040Y36658D01*
X51246Y36987D01*
X50394Y37099D01*
X49542Y36987D01*
X48748Y36658D01*
X48066Y36135D01*
X47543Y35453D01*
X47214Y34659D01*
X47102Y33807D01*
X47214Y32955D01*
X47320Y32699D01*
X47042Y32283D01*
X33465D01*
Y87943D01*
X34818Y88076D01*
X36120Y88471D01*
X37320Y89112D01*
X38371Y89975D01*
X39234Y91027D01*
X39875Y92226D01*
X40270Y93528D01*
X40404Y94882D01*
X124217D01*
X124346Y94796D01*
X124813Y94703D01*
X124849Y94667D01*
Y90458D01*
X124302Y90093D01*
X123907Y89502D01*
X123768Y88804D01*
Y87033D01*
X123907Y86335D01*
X124302Y85744D01*
X124893Y85349D01*
X125591Y85210D01*
X127165D01*
X127863Y85349D01*
X128454Y85744D01*
X128849Y86335D01*
X128988Y87033D01*
Y88804D01*
X128849Y89502D01*
X128454Y90093D01*
X127907Y90458D01*
Y94882D01*
X129418D01*
X129570Y94382D01*
D02*
G37*
G36*
X227953Y33369D02*
X227488Y33283D01*
X227453Y33283D01*
X224626D01*
Y29921D01*
Y26559D01*
X227453D01*
X227488Y26559D01*
X227953Y26474D01*
Y25945D01*
X227598Y25592D01*
X149213Y25984D01*
Y27538D01*
X149713Y27708D01*
X149854Y27523D01*
X150556Y26984D01*
X151374Y26646D01*
X152252Y26530D01*
X153130Y26646D01*
X153948Y26984D01*
X154650Y27523D01*
X155189Y28226D01*
X155528Y29044D01*
X155643Y29921D01*
X155528Y30799D01*
X155189Y31617D01*
X154650Y32319D01*
X153948Y32858D01*
X153892Y32881D01*
Y34012D01*
X156200Y36320D01*
X156200Y36320D01*
X156495Y36616D01*
X162555D01*
X163140Y36732D01*
X163636Y37064D01*
X165200Y38628D01*
X182795D01*
X183160Y38081D01*
X183751Y37686D01*
X184449Y37548D01*
X186024D01*
X186721Y37686D01*
X187312Y38081D01*
X187707Y38673D01*
X187846Y39370D01*
Y40945D01*
X187707Y41642D01*
X187312Y42234D01*
X186721Y42629D01*
X186470Y42678D01*
Y43525D01*
X186639Y43595D01*
X187465Y44228D01*
X188098Y45054D01*
X188312Y45570D01*
X188853D01*
X189067Y45054D01*
X189700Y44228D01*
X190526Y43595D01*
X191488Y43196D01*
X191367Y42732D01*
X188567D01*
Y37583D01*
X188567D01*
X188516Y37104D01*
X188419Y36963D01*
X177585D01*
X177557Y37006D01*
X176835Y37488D01*
X175984Y37657D01*
X175133Y37488D01*
X174412Y37006D01*
X173930Y36284D01*
X173760Y35433D01*
X173930Y34582D01*
X174412Y33861D01*
X175133Y33379D01*
X175984Y33209D01*
X176835Y33379D01*
X177557Y33861D01*
X177585Y33904D01*
X189370D01*
X189955Y34020D01*
X190452Y34352D01*
X192223Y36123D01*
X192555Y36619D01*
X192671Y37205D01*
Y37583D01*
X193717D01*
Y42732D01*
X193672D01*
X193552Y43196D01*
X194513Y43595D01*
X195339Y44228D01*
X195941Y45013D01*
X195997Y45013D01*
X196441Y44678D01*
Y43095D01*
X199894D01*
Y47047D01*
Y51000D01*
X196441D01*
Y49417D01*
X195997Y49081D01*
X195941Y49082D01*
X195339Y49866D01*
X194513Y50500D01*
X193552Y50898D01*
X192520Y51034D01*
X191488Y50898D01*
X190526Y50500D01*
X189700Y49866D01*
X189067Y49041D01*
X188853Y48525D01*
X188312D01*
X188098Y49041D01*
X187465Y49866D01*
X186639Y50500D01*
X185678Y50898D01*
X184646Y51034D01*
X183614Y50898D01*
X182652Y50500D01*
X181826Y49866D01*
X181193Y49041D01*
X180979Y48525D01*
X180438D01*
X180224Y49041D01*
X179591Y49866D01*
X178765Y50500D01*
X177804Y50898D01*
X176772Y51034D01*
X175740Y50898D01*
X174778Y50500D01*
X173952Y49866D01*
X173319Y49041D01*
X172921Y48079D01*
X172785Y47047D01*
X172921Y46015D01*
X173319Y45054D01*
X173952Y44228D01*
X174778Y43595D01*
X175740Y43196D01*
X176772Y43060D01*
X177804Y43196D01*
X178765Y43595D01*
X179591Y44228D01*
X180224Y45054D01*
X180438Y45570D01*
X180979D01*
X181193Y45054D01*
X181826Y44228D01*
X182652Y43595D01*
X183412Y43280D01*
Y42401D01*
X183160Y42234D01*
X182795Y41687D01*
X164567D01*
X163982Y41570D01*
X163486Y41239D01*
X161921Y39675D01*
X155862D01*
X155277Y39558D01*
X154780Y39227D01*
X154037Y38483D01*
X154037Y38483D01*
X151281Y35727D01*
X150949Y35231D01*
X150833Y34646D01*
Y32973D01*
X150556Y32858D01*
X149854Y32319D01*
X149713Y32135D01*
X149213Y32305D01*
Y57480D01*
X227953D01*
Y33369D01*
D02*
G37*
%LPC*%
G36*
X208571Y213567D02*
Y210146D01*
X211992D01*
X211922Y210678D01*
X211524Y211639D01*
X210890Y212465D01*
X210064Y213098D01*
X209103Y213497D01*
X208571Y213567D01*
D02*
G37*
G36*
X207571D02*
X207039Y213497D01*
X206077Y213098D01*
X205252Y212465D01*
X204618Y211639D01*
X204220Y210678D01*
X204150Y210146D01*
X207571D01*
Y213567D01*
D02*
G37*
G36*
X194307Y213598D02*
X190854D01*
Y210146D01*
X194307D01*
Y213598D01*
D02*
G37*
G36*
X189854D02*
X186402D01*
Y210146D01*
X189854D01*
Y213598D01*
D02*
G37*
G36*
X211992Y209146D02*
X208571D01*
Y205725D01*
X209103Y205795D01*
X210064Y206193D01*
X210890Y206827D01*
X211524Y207652D01*
X211922Y208614D01*
X211992Y209146D01*
D02*
G37*
G36*
X207571D02*
X204150D01*
X204220Y208614D01*
X204618Y207652D01*
X205252Y206827D01*
X206077Y206193D01*
X207039Y205795D01*
X207571Y205725D01*
Y209146D01*
D02*
G37*
G36*
X194307D02*
X190854D01*
Y205693D01*
X194307D01*
Y209146D01*
D02*
G37*
G36*
X189854D02*
X186402D01*
Y205693D01*
X189854D01*
Y209146D01*
D02*
G37*
G36*
X53658Y217488D02*
X50894D01*
Y214724D01*
X53658D01*
Y217488D01*
D02*
G37*
G36*
X49894D02*
X47130D01*
Y214724D01*
X49894D01*
Y217488D01*
D02*
G37*
G36*
X53658Y213724D02*
X50894D01*
Y210961D01*
X53658D01*
Y213724D01*
D02*
G37*
G36*
X49894D02*
X47130D01*
Y210961D01*
X49894D01*
Y213724D01*
D02*
G37*
G36*
X50394Y209615D02*
X49542Y209503D01*
X48748Y209174D01*
X48066Y208651D01*
X47543Y207969D01*
X47214Y207175D01*
X47102Y206323D01*
X47214Y205471D01*
X47543Y204677D01*
X48066Y203995D01*
X48748Y203472D01*
X49542Y203143D01*
X50394Y203031D01*
X51246Y203143D01*
X52040Y203472D01*
X52721Y203995D01*
X53245Y204677D01*
X53574Y205471D01*
X53686Y206323D01*
X53574Y207175D01*
X53245Y207969D01*
X52721Y208651D01*
X52040Y209174D01*
X51246Y209503D01*
X50394Y209615D01*
D02*
G37*
G36*
Y201717D02*
X49542Y201605D01*
X48748Y201276D01*
X48066Y200753D01*
X47543Y200071D01*
X47214Y199277D01*
X47102Y198425D01*
X47214Y197573D01*
X47543Y196779D01*
X48066Y196098D01*
X48748Y195574D01*
X49542Y195246D01*
X50394Y195133D01*
X51246Y195246D01*
X52040Y195574D01*
X52721Y196098D01*
X53245Y196779D01*
X53574Y197573D01*
X53686Y198425D01*
X53574Y199277D01*
X53245Y200071D01*
X52721Y200753D01*
X52040Y201276D01*
X51246Y201605D01*
X50394Y201717D01*
D02*
G37*
G36*
X104425Y199212D02*
X99004D01*
Y193790D01*
X104425D01*
Y199212D01*
D02*
G37*
G36*
X98004D02*
X92583D01*
Y193790D01*
X98004D01*
Y199212D01*
D02*
G37*
G36*
X104425Y192790D02*
X99004D01*
Y187369D01*
X104425D01*
Y192790D01*
D02*
G37*
G36*
X98004D02*
X92583D01*
Y187369D01*
X98004D01*
Y192790D01*
D02*
G37*
G36*
X118504Y199240D02*
X117343Y199126D01*
X116227Y198787D01*
X115198Y198238D01*
X114297Y197498D01*
X113557Y196596D01*
X113007Y195567D01*
X112668Y194451D01*
X112554Y193290D01*
X112668Y192130D01*
X113007Y191013D01*
X113557Y189985D01*
X114297Y189083D01*
X115198Y188343D01*
X116227Y187793D01*
X117343Y187455D01*
X118504Y187340D01*
X119665Y187455D01*
X120781Y187793D01*
X121809Y188343D01*
X122711Y189083D01*
X123451Y189985D01*
X124001Y191013D01*
X124339Y192130D01*
X124454Y193290D01*
X124339Y194451D01*
X124001Y195567D01*
X123451Y196596D01*
X122711Y197498D01*
X121809Y198238D01*
X120781Y198787D01*
X119665Y199126D01*
X118504Y199240D01*
D02*
G37*
G36*
X50394Y193816D02*
X49542Y193703D01*
X48748Y193375D01*
X48066Y192851D01*
X47543Y192170D01*
X47214Y191376D01*
X47102Y190524D01*
X47214Y189672D01*
X47543Y188878D01*
X48066Y188196D01*
X48748Y187673D01*
X49542Y187344D01*
X50394Y187232D01*
X51246Y187344D01*
X52040Y187673D01*
X52721Y188196D01*
X53245Y188878D01*
X53574Y189672D01*
X53686Y190524D01*
X53574Y191376D01*
X53245Y192170D01*
X52721Y192851D01*
X52040Y193375D01*
X51246Y193703D01*
X50394Y193816D01*
D02*
G37*
G36*
X194307Y136827D02*
X190854D01*
Y133374D01*
X194307D01*
Y136827D01*
D02*
G37*
G36*
X189854D02*
X186401D01*
Y133374D01*
X189854D01*
Y136827D01*
D02*
G37*
G36*
X173138Y136795D02*
Y133374D01*
X176559D01*
X176489Y133906D01*
X176091Y134867D01*
X175457Y135693D01*
X174631Y136327D01*
X173670Y136725D01*
X173138Y136795D01*
D02*
G37*
G36*
X172138D02*
X171606Y136725D01*
X170644Y136327D01*
X169819Y135693D01*
X169185Y134867D01*
X168787Y133906D01*
X168717Y133374D01*
X172138D01*
Y136795D01*
D02*
G37*
G36*
X176559Y132374D02*
X173138D01*
Y128953D01*
X173670Y129023D01*
X174631Y129421D01*
X175457Y130055D01*
X176091Y130880D01*
X176489Y131842D01*
X176559Y132374D01*
D02*
G37*
G36*
X172138D02*
X168717D01*
X168787Y131842D01*
X169185Y130880D01*
X169819Y130055D01*
X170644Y129421D01*
X171606Y129023D01*
X172138Y128953D01*
Y132374D01*
D02*
G37*
G36*
X194307D02*
X190854D01*
Y128921D01*
X194307D01*
Y132374D01*
D02*
G37*
G36*
X189854D02*
X186401D01*
Y128921D01*
X189854D01*
Y132374D01*
D02*
G37*
G36*
X52476Y157595D02*
X49713D01*
Y154831D01*
X52476D01*
Y157595D01*
D02*
G37*
G36*
X48713D02*
X45949D01*
Y154831D01*
X48713D01*
Y157595D01*
D02*
G37*
G36*
X52476Y153831D02*
X49713D01*
Y151067D01*
X52476D01*
Y153831D01*
D02*
G37*
G36*
X48713D02*
X45949D01*
Y151067D01*
X48713D01*
Y153831D01*
D02*
G37*
G36*
X77165Y156934D02*
X76288Y156819D01*
X75470Y156480D01*
X74767Y155941D01*
X74229Y155239D01*
X73890Y154421D01*
X73774Y153543D01*
X73890Y152666D01*
X74229Y151848D01*
X74767Y151145D01*
X75470Y150606D01*
X76288Y150268D01*
X77165Y150152D01*
X78043Y150268D01*
X78861Y150606D01*
X79563Y151145D01*
X80102Y151848D01*
X80441Y152666D01*
X80557Y153543D01*
X80441Y154421D01*
X80102Y155239D01*
X79563Y155941D01*
X78861Y156480D01*
X78043Y156819D01*
X77165Y156934D01*
D02*
G37*
G36*
X106797Y150046D02*
X104836D01*
Y144595D01*
X110287D01*
Y146555D01*
X110168Y147459D01*
X109819Y148300D01*
X109265Y149023D01*
X108542Y149578D01*
X107700Y149927D01*
X106797Y150046D01*
D02*
G37*
G36*
X103836D02*
X101875D01*
X100972Y149927D01*
X100130Y149578D01*
X99407Y149023D01*
X98852Y148300D01*
X98504Y147459D01*
X98385Y146555D01*
Y144595D01*
X103836D01*
Y150046D01*
D02*
G37*
G36*
X49213Y149721D02*
X48361Y149609D01*
X47567Y149280D01*
X46885Y148757D01*
X46362Y148075D01*
X46033Y147281D01*
X45921Y146429D01*
X46033Y145577D01*
X46362Y144783D01*
X46885Y144101D01*
X47567Y143578D01*
X48361Y143249D01*
X49213Y143137D01*
X50065Y143249D01*
X50859Y143578D01*
X51540Y144101D01*
X52064Y144783D01*
X52392Y145577D01*
X52504Y146429D01*
X52392Y147281D01*
X52064Y148075D01*
X51540Y148757D01*
X50859Y149280D01*
X50065Y149609D01*
X49213Y149721D01*
D02*
G37*
G36*
X110287Y143595D02*
X104836D01*
Y138143D01*
X106797D01*
X107700Y138262D01*
X108542Y138611D01*
X109265Y139166D01*
X109819Y139889D01*
X110168Y140730D01*
X110287Y141634D01*
Y143595D01*
D02*
G37*
G36*
X103836D02*
X98385D01*
Y141634D01*
X98504Y140730D01*
X98852Y139889D01*
X99407Y139166D01*
X100130Y138611D01*
X100972Y138262D01*
X101875Y138143D01*
X103836D01*
Y143595D01*
D02*
G37*
G36*
X65854Y134408D02*
Y132783D01*
X67479D01*
X67409Y133134D01*
X66927Y133856D01*
X66205Y134338D01*
X65854Y134408D01*
D02*
G37*
G36*
X64854D02*
X64503Y134338D01*
X63782Y133856D01*
X63300Y133134D01*
X63230Y132783D01*
X64854D01*
Y134408D01*
D02*
G37*
G36*
X67479Y131783D02*
X65854D01*
Y130159D01*
X66205Y130229D01*
X66927Y130711D01*
X67409Y131432D01*
X67479Y131783D01*
D02*
G37*
G36*
X64854D02*
X63230D01*
X63300Y131432D01*
X63782Y130711D01*
X64503Y130229D01*
X64854Y130159D01*
Y131783D01*
D02*
G37*
G36*
X49213Y133922D02*
X48361Y133810D01*
X47567Y133481D01*
X46885Y132958D01*
X46362Y132276D01*
X46033Y131482D01*
X45921Y130630D01*
X46033Y129778D01*
X46362Y128984D01*
X46885Y128302D01*
X47567Y127779D01*
X48361Y127450D01*
X49213Y127338D01*
X50065Y127450D01*
X50859Y127779D01*
X51540Y128302D01*
X52064Y128984D01*
X52392Y129778D01*
X52504Y130630D01*
X52392Y131482D01*
X52064Y132276D01*
X51540Y132958D01*
X50859Y133481D01*
X50065Y133810D01*
X49213Y133922D01*
D02*
G37*
G36*
X87165Y156934D02*
X86288Y156819D01*
X85470Y156480D01*
X84767Y155941D01*
X84228Y155239D01*
X83890Y154421D01*
X83774Y153543D01*
X83890Y152666D01*
X84228Y151848D01*
X84767Y151145D01*
X85470Y150606D01*
X85479Y150603D01*
Y129948D01*
X85435Y129919D01*
X84953Y129198D01*
X84784Y128347D01*
X84953Y127495D01*
X85435Y126774D01*
X86157Y126292D01*
X87008Y126123D01*
X87859Y126292D01*
X88580Y126774D01*
X89062Y127495D01*
X89232Y128347D01*
X89062Y129198D01*
X88580Y129919D01*
X88537Y129948D01*
Y150472D01*
X88861Y150606D01*
X89563Y151145D01*
X90102Y151848D01*
X90441Y152666D01*
X90557Y153543D01*
X90441Y154421D01*
X90102Y155239D01*
X89563Y155941D01*
X88861Y156480D01*
X88043Y156819D01*
X87165Y156934D01*
D02*
G37*
G36*
X156008Y101000D02*
X153146D01*
Y98138D01*
X156008D01*
Y101000D01*
D02*
G37*
G36*
Y97138D02*
X153146D01*
Y94276D01*
X156008D01*
Y97138D01*
D02*
G37*
G36*
X212705Y95431D02*
Y93807D01*
X214329D01*
X214259Y94158D01*
X213777Y94880D01*
X213056Y95362D01*
X212705Y95431D01*
D02*
G37*
G36*
X211705D02*
X211354Y95362D01*
X210632Y94880D01*
X210150Y94158D01*
X210080Y93807D01*
X211705D01*
Y95431D01*
D02*
G37*
G36*
X214329Y92807D02*
X212705D01*
Y91183D01*
X213056Y91252D01*
X213777Y91735D01*
X214259Y92456D01*
X214329Y92807D01*
D02*
G37*
G36*
X211705D02*
X210080D01*
X210150Y92456D01*
X210632Y91735D01*
X211354Y91252D01*
X211705Y91183D01*
Y92807D01*
D02*
G37*
G36*
X175878Y84465D02*
X172425D01*
Y81012D01*
X175878D01*
Y84465D01*
D02*
G37*
G36*
Y80012D02*
X172425D01*
Y76559D01*
X175878D01*
Y80012D01*
D02*
G37*
G36*
X219291Y86466D02*
X217938Y86333D01*
X216636Y85938D01*
X215436Y85297D01*
X214385Y84434D01*
X213522Y83383D01*
X212881Y82183D01*
X212486Y80881D01*
X212352Y79527D01*
X212486Y78174D01*
X212881Y76872D01*
X213522Y75673D01*
X214385Y74621D01*
X215436Y73758D01*
X216636Y73117D01*
X217938Y72722D01*
X219291Y72589D01*
X220645Y72722D01*
X221947Y73117D01*
X223146Y73758D01*
X224198Y74621D01*
X225061Y75673D01*
X225702Y76872D01*
X226097Y78174D01*
X226230Y79527D01*
X226097Y80881D01*
X225702Y82183D01*
X225061Y83383D01*
X224198Y84434D01*
X223146Y85297D01*
X221947Y85938D01*
X220645Y86333D01*
X219291Y86466D01*
D02*
G37*
G36*
X157480D02*
X156126Y86333D01*
X154825Y85938D01*
X153625Y85297D01*
X152574Y84434D01*
X151711Y83383D01*
X151069Y82183D01*
X150675Y80881D01*
X150541Y79527D01*
X150675Y78174D01*
X151069Y76872D01*
X151711Y75673D01*
X152574Y74621D01*
X153625Y73758D01*
X154825Y73117D01*
X156126Y72722D01*
X157480Y72589D01*
X158834Y72722D01*
X160136Y73117D01*
X161335Y73758D01*
X162387Y74621D01*
X163250Y75673D01*
X163891Y76872D01*
X164286Y78174D01*
X164419Y79527D01*
X164286Y80881D01*
X163891Y82183D01*
X163250Y83383D01*
X162387Y84434D01*
X161335Y85297D01*
X160136Y85938D01*
X158834Y86333D01*
X157480Y86466D01*
D02*
G37*
G36*
X53658Y76571D02*
X50894D01*
Y73807D01*
X53658D01*
Y76571D01*
D02*
G37*
G36*
X49894D02*
X47130D01*
Y73807D01*
X49894D01*
Y76571D01*
D02*
G37*
G36*
X95360Y77415D02*
X94509Y77245D01*
X93788Y76763D01*
X93759Y76720D01*
X89364D01*
X88779Y76604D01*
X88283Y76272D01*
X55248Y43238D01*
X53293D01*
X53245Y43355D01*
X52721Y44036D01*
X52040Y44560D01*
X51246Y44888D01*
X50394Y45001D01*
X49542Y44888D01*
X48748Y44560D01*
X48066Y44036D01*
X47543Y43355D01*
X47214Y42561D01*
X47102Y41709D01*
X47214Y40857D01*
X47543Y40063D01*
X48066Y39381D01*
X48748Y38858D01*
X49542Y38529D01*
X50394Y38417D01*
X51246Y38529D01*
X52040Y38858D01*
X52721Y39381D01*
X53245Y40063D01*
X53293Y40179D01*
X55882D01*
X56467Y40296D01*
X56963Y40627D01*
X89998Y73661D01*
X93759D01*
X93788Y73618D01*
X94509Y73136D01*
X95360Y72967D01*
X96211Y73136D01*
X96933Y73618D01*
X97415Y74340D01*
X97584Y75191D01*
X97415Y76042D01*
X96933Y76763D01*
X96211Y77245D01*
X95360Y77415D01*
D02*
G37*
G36*
X53658Y72807D02*
X50894D01*
Y70043D01*
X53658D01*
Y72807D01*
D02*
G37*
G36*
X49894D02*
X47130D01*
Y70043D01*
X49894D01*
Y72807D01*
D02*
G37*
G36*
X50394Y68698D02*
X49542Y68585D01*
X48748Y68256D01*
X48066Y67733D01*
X47543Y67052D01*
X47214Y66258D01*
X47102Y65405D01*
X47214Y64553D01*
X47543Y63760D01*
X48066Y63078D01*
X48748Y62555D01*
X49542Y62226D01*
X50394Y62114D01*
X51246Y62226D01*
X52040Y62555D01*
X52721Y63078D01*
X53245Y63760D01*
X53574Y64553D01*
X53686Y65405D01*
X53574Y66258D01*
X53245Y67052D01*
X52721Y67733D01*
X52040Y68256D01*
X51246Y68585D01*
X50394Y68698D01*
D02*
G37*
G36*
X96551Y63795D02*
X91130D01*
Y58374D01*
X96551D01*
Y63795D01*
D02*
G37*
G36*
X90130D02*
X84709D01*
Y58374D01*
X90130D01*
Y63795D01*
D02*
G37*
G36*
X50394Y60800D02*
X49542Y60688D01*
X48748Y60359D01*
X48066Y59836D01*
X47543Y59154D01*
X47214Y58360D01*
X47102Y57508D01*
X47214Y56656D01*
X47543Y55862D01*
X48066Y55180D01*
X48748Y54657D01*
X49542Y54328D01*
X50394Y54216D01*
X51246Y54328D01*
X52040Y54657D01*
X52721Y55180D01*
X53245Y55862D01*
X53574Y56656D01*
X53686Y57508D01*
X53574Y58360D01*
X53245Y59154D01*
X52721Y59836D01*
X52040Y60359D01*
X51246Y60688D01*
X50394Y60800D01*
D02*
G37*
G36*
X96551Y57374D02*
X91130D01*
Y51953D01*
X96551D01*
Y57374D01*
D02*
G37*
G36*
X90130D02*
X84709D01*
Y51953D01*
X90130D01*
Y57374D01*
D02*
G37*
G36*
X90158Y81751D02*
X89306Y81582D01*
X88585Y81100D01*
X88103Y80379D01*
X87934Y79528D01*
X88103Y78676D01*
X88585Y77955D01*
X89306Y77473D01*
X90158Y77304D01*
X91009Y77473D01*
X91730Y77955D01*
X91759Y77998D01*
X98973D01*
X109100Y67870D01*
Y63598D01*
X108353Y63371D01*
X107324Y62821D01*
X106423Y62081D01*
X105683Y61180D01*
X105133Y60151D01*
X104794Y59035D01*
X104680Y57874D01*
X104794Y56713D01*
X105133Y55597D01*
X105683Y54568D01*
X106423Y53667D01*
X107324Y52927D01*
X108353Y52377D01*
X109469Y52039D01*
X110630Y51924D01*
X111791Y52039D01*
X112907Y52377D01*
X113935Y52927D01*
X114837Y53667D01*
X115577Y54568D01*
X116127Y55597D01*
X116465Y56713D01*
X116580Y57874D01*
X116465Y59035D01*
X116127Y60151D01*
X115577Y61180D01*
X114837Y62081D01*
X113935Y62821D01*
X112907Y63371D01*
X112159Y63598D01*
Y68504D01*
X112043Y69089D01*
X111711Y69585D01*
X100688Y80609D01*
X100192Y80941D01*
X99606Y81057D01*
X91759D01*
X91730Y81100D01*
X91009Y81582D01*
X90158Y81751D01*
D02*
G37*
G36*
X50394Y52898D02*
X49542Y52786D01*
X48748Y52457D01*
X48066Y51934D01*
X47543Y51252D01*
X47214Y50458D01*
X47102Y49606D01*
X47214Y48754D01*
X47543Y47960D01*
X48066Y47279D01*
X48748Y46755D01*
X49542Y46426D01*
X50394Y46314D01*
X51246Y46426D01*
X52040Y46755D01*
X52721Y47279D01*
X53245Y47960D01*
X53574Y48754D01*
X53686Y49606D01*
X53574Y50458D01*
X53245Y51252D01*
X52721Y51934D01*
X52040Y52457D01*
X51246Y52786D01*
X50394Y52898D01*
D02*
G37*
G36*
X204346Y51000D02*
X200894D01*
Y47547D01*
X204346D01*
Y51000D01*
D02*
G37*
G36*
Y46547D02*
X200894D01*
Y43095D01*
X204346D01*
Y46547D01*
D02*
G37*
G36*
X219291Y54971D02*
X217938Y54837D01*
X216636Y54442D01*
X215436Y53801D01*
X214385Y52938D01*
X213522Y51887D01*
X212881Y50687D01*
X212486Y49385D01*
X212352Y48031D01*
X212486Y46678D01*
X212881Y45376D01*
X213522Y44177D01*
X214385Y43125D01*
X215436Y42262D01*
X216636Y41621D01*
X217938Y41226D01*
X219291Y41093D01*
X220645Y41226D01*
X221947Y41621D01*
X223146Y42262D01*
X224198Y43125D01*
X225061Y44177D01*
X225702Y45376D01*
X226097Y46678D01*
X226230Y48031D01*
X226097Y49385D01*
X225702Y50687D01*
X225061Y51887D01*
X224198Y52938D01*
X223146Y53801D01*
X221947Y54442D01*
X220645Y54837D01*
X219291Y54971D01*
D02*
G37*
G36*
X157480D02*
X156127Y54837D01*
X154825Y54442D01*
X153625Y53801D01*
X152574Y52938D01*
X151711Y51887D01*
X151070Y50687D01*
X150675Y49385D01*
X150541Y48031D01*
X150675Y46678D01*
X151070Y45376D01*
X151711Y44177D01*
X152574Y43125D01*
X153625Y42262D01*
X154825Y41621D01*
X156127Y41226D01*
X157480Y41093D01*
X158834Y41226D01*
X160136Y41621D01*
X161335Y42262D01*
X162387Y43125D01*
X163250Y44177D01*
X163891Y45376D01*
X164286Y46678D01*
X164419Y48031D01*
X164286Y49385D01*
X163891Y50687D01*
X163250Y51887D01*
X162387Y52938D01*
X161335Y53801D01*
X160136Y54442D01*
X158834Y54837D01*
X157480Y54971D01*
D02*
G37*
G36*
X165067Y36376D02*
Y34752D01*
X166691D01*
X166621Y35103D01*
X166139Y35824D01*
X165418Y36307D01*
X165067Y36376D01*
D02*
G37*
G36*
X164067D02*
X163716Y36307D01*
X162995Y35824D01*
X162512Y35103D01*
X162443Y34752D01*
X164067D01*
Y36376D01*
D02*
G37*
G36*
X166691Y33752D02*
X165067D01*
Y32128D01*
X165418Y32197D01*
X166139Y32680D01*
X166621Y33401D01*
X166691Y33752D01*
D02*
G37*
G36*
X164067D02*
X162443D01*
X162512Y33401D01*
X162995Y32680D01*
X163716Y32197D01*
X164067Y32128D01*
Y33752D01*
D02*
G37*
G36*
X223626Y33283D02*
X220764D01*
Y30421D01*
X223626D01*
Y33283D01*
D02*
G37*
G36*
Y29421D02*
X220764D01*
Y26559D01*
X223626D01*
Y29421D01*
D02*
G37*
%LPD*%
D11*
X191142Y40157D02*
D03*
X185630Y87401D02*
D03*
X115157Y212598D02*
D03*
X197244Y221260D02*
D03*
X183465Y121260D02*
D03*
X116755Y84875D02*
D03*
D12*
X185236Y40157D02*
D03*
X191535Y87401D02*
D03*
X121063Y212598D02*
D03*
X191339Y221260D02*
D03*
X189370Y121260D02*
D03*
X110850Y84875D02*
D03*
D14*
X191142Y40157D02*
Y37205D01*
X189370Y35433D01*
X175984D02*
X189370D01*
X164567Y40157D02*
X185236D01*
X184646Y47047D02*
X184941Y46752D01*
Y40453D01*
X155118Y37402D02*
X155118D01*
X164567Y40157D02*
X162555Y38145D01*
X155862D02*
X155118Y37402D01*
X155862Y38145D02*
X162555D01*
X155118Y37402D02*
X152362Y34646D01*
Y30031D02*
X152252Y29921D01*
X152362Y34646D02*
Y30031D01*
X184941Y40453D02*
X185236Y40157D01*
X187008Y47047D02*
X187106Y46949D01*
X185630Y87401D02*
Y90354D01*
X187401Y92126D01*
X200787D02*
X187401D01*
X212205Y87401D02*
X191535D01*
X192126Y80512D02*
X191831Y80807D01*
Y87106D01*
X221654Y90157D02*
X221654D01*
X212205Y87401D02*
X214217Y89414D01*
X220910D02*
X221654Y90157D01*
X220910Y89414D02*
X214217D01*
X221654Y90157D02*
X224409Y92913D01*
Y97527D02*
X224520Y97638D01*
X224409Y92913D02*
Y97527D01*
X191831Y87106D02*
X191535Y87401D01*
X189764Y80512D02*
X189665Y80610D01*
X126378Y76993D02*
Y77092D01*
X124449Y75064D02*
X126378Y76993D01*
X123489Y75064D02*
X124449D01*
X123228Y74803D02*
X123489Y75064D01*
X130709Y92520D02*
X132283D01*
X133465Y91339D01*
Y87918D02*
Y91339D01*
X126378Y87918D02*
Y95301D01*
X125197Y96482D02*
X126378Y95301D01*
X125197Y96482D02*
Y96850D01*
X116755Y76158D02*
X120472Y72441D01*
Y64915D02*
Y72441D01*
X116755Y76158D02*
Y84875D01*
X116535Y63779D02*
X122441Y57874D01*
X110850Y76158D02*
X116535Y70473D01*
Y63779D02*
Y70473D01*
X110850Y76158D02*
Y84875D01*
X90158Y79528D02*
X99606D01*
X110630Y68504D01*
Y57874D02*
Y68504D01*
X55882Y41709D02*
X89364Y75191D01*
X95360D01*
X122441Y57874D02*
X130630D01*
X133465Y77092D02*
X133538Y77165D01*
X135433D01*
X137402Y79134D02*
Y84252D01*
X135433Y77165D02*
X137402Y79134D01*
X63615Y84875D02*
X110850D01*
X59842Y81102D02*
X63615Y84875D01*
X50394Y41709D02*
X55882D01*
X87008Y153386D02*
X87165Y153543D01*
X87008Y128347D02*
Y153386D01*
X49213Y138531D02*
X53492D01*
X57036Y142075D01*
Y148768D01*
X69685Y161417D01*
X107013D02*
X124336Y144095D01*
X69685Y161417D02*
X107013D01*
D19*
X120698Y212234D02*
X121063Y212598D01*
X120698Y208887D02*
Y212234D01*
X120472Y208662D02*
X120698Y208887D01*
X85039Y180709D02*
X101181D01*
X109055Y188583D01*
Y206496D01*
X115157Y212598D01*
X121063D02*
X127953D01*
X138504Y193290D02*
Y202047D01*
X127953Y212598D02*
X138504Y202047D01*
X194488Y202756D02*
X197244Y205512D01*
X183858Y190551D02*
X190354Y184055D01*
X183858Y216535D02*
X188583Y221260D01*
X183858Y190551D02*
Y216535D01*
X182087Y208858D02*
X183465Y210236D01*
X197244Y205512D02*
Y221260D01*
X190354Y184055D02*
X208071D01*
X176164Y208858D02*
X182087D01*
X188583Y221260D02*
X191339D01*
X186220Y139764D02*
X183465Y137008D01*
X196850Y151969D02*
X190354Y158465D01*
X196850Y125984D02*
X192126Y121260D01*
X196850Y151969D02*
Y125984D01*
X198622Y133661D02*
X197244Y132283D01*
X183465Y137008D02*
Y121260D01*
X190354Y158465D02*
X172638D01*
X204544Y133661D02*
X198622D01*
X192126Y121260D02*
X189370D01*
D21*
X24016Y241339D02*
D03*
Y237402D02*
D03*
Y245276D02*
D03*
Y249213D02*
D03*
X240945Y22835D02*
D03*
X237008D02*
D03*
X244882D02*
D03*
X248819D02*
D03*
X7087Y22441D02*
D03*
X3150D02*
D03*
X11024D02*
D03*
X14961D02*
D03*
X192126Y67716D02*
D03*
X188189D02*
D03*
X180315D02*
D03*
X184252D02*
D03*
X192126Y59842D02*
D03*
X188189D02*
D03*
X180315D02*
D03*
X184252D02*
D03*
X192126Y22441D02*
D03*
X196063D02*
D03*
X188189D02*
D03*
X184252D02*
D03*
X231102Y47638D02*
D03*
Y43701D02*
D03*
Y35827D02*
D03*
Y39764D02*
D03*
Y82284D02*
D03*
Y78347D02*
D03*
Y86221D02*
D03*
Y90158D02*
D03*
X146063Y59449D02*
D03*
Y55512D02*
D03*
Y63386D02*
D03*
Y67323D02*
D03*
X186614Y104724D02*
D03*
X182677D02*
D03*
X190551D02*
D03*
X194488D02*
D03*
X228346Y143307D02*
D03*
Y139370D02*
D03*
Y131496D02*
D03*
Y135433D02*
D03*
X225197D02*
D03*
Y131496D02*
D03*
Y139370D02*
D03*
Y143307D02*
D03*
X194488Y110630D02*
D03*
X190551D02*
D03*
X182677D02*
D03*
X186614D02*
D03*
X185433Y165354D02*
D03*
X189370D02*
D03*
X197244D02*
D03*
X193307D02*
D03*
X155512Y133858D02*
D03*
Y129921D02*
D03*
Y137795D02*
D03*
Y141732D02*
D03*
X194095Y231890D02*
D03*
X198031D02*
D03*
X190157D02*
D03*
X186221D02*
D03*
X225197Y205118D02*
D03*
Y201181D02*
D03*
Y193307D02*
D03*
Y197244D02*
D03*
X228346D02*
D03*
Y193307D02*
D03*
Y201181D02*
D03*
Y205118D02*
D03*
X194488Y177165D02*
D03*
X190551D02*
D03*
X182677D02*
D03*
X186614D02*
D03*
X155512Y205512D02*
D03*
Y201575D02*
D03*
Y193701D02*
D03*
Y197638D02*
D03*
X227953Y241339D02*
D03*
Y237402D02*
D03*
Y245276D02*
D03*
Y249213D02*
D03*
X152362Y197638D02*
D03*
Y193701D02*
D03*
Y201575D02*
D03*
Y205512D02*
D03*
X23622D02*
D03*
Y209449D02*
D03*
Y201575D02*
D03*
Y197638D02*
D03*
X79921Y231890D02*
D03*
X83858D02*
D03*
X91732D02*
D03*
X87795D02*
D03*
X79921Y168110D02*
D03*
X83858D02*
D03*
X91732D02*
D03*
X87795D02*
D03*
X79921Y171260D02*
D03*
X75984D02*
D03*
X83858D02*
D03*
X87795D02*
D03*
X152362Y133858D02*
D03*
Y129921D02*
D03*
Y137795D02*
D03*
Y141732D02*
D03*
X23228Y133858D02*
D03*
Y137795D02*
D03*
Y145669D02*
D03*
Y141732D02*
D03*
X87402Y107480D02*
D03*
X83464D02*
D03*
X75590D02*
D03*
X79527D02*
D03*
X22835Y68110D02*
D03*
Y72047D02*
D03*
Y64173D02*
D03*
Y60236D02*
D03*
X87402Y22441D02*
D03*
X83464D02*
D03*
X75590D02*
D03*
X79527D02*
D03*
X142520Y67323D02*
D03*
Y63386D02*
D03*
Y55512D02*
D03*
Y59449D02*
D03*
X87402Y104331D02*
D03*
X91339D02*
D03*
X83464D02*
D03*
X79527D02*
D03*
D22*
X152252Y29921D02*
D03*
X224520Y97638D02*
D03*
X176164Y214764D02*
D03*
Y208858D02*
D03*
Y202953D02*
D03*
X204544Y127756D02*
D03*
Y133661D02*
D03*
Y139567D02*
D03*
X87165Y153543D02*
D03*
X77165D02*
D03*
D23*
X224126Y29921D02*
D03*
X152646Y97638D02*
D03*
D24*
X176772Y47047D02*
D03*
X192520D02*
D03*
X184646D02*
D03*
X200000Y80512D02*
D03*
X184252D02*
D03*
X192126D02*
D03*
X208071Y209646D02*
D03*
Y184055D02*
D03*
X190354D02*
D03*
X172638Y132874D02*
D03*
Y158465D02*
D03*
X190354D02*
D03*
D25*
X200394Y47047D02*
D03*
X176378Y80512D02*
D03*
D26*
X219291Y48031D02*
D03*
X157480D02*
D03*
X157480Y79527D02*
D03*
X219291D02*
D03*
X140476Y222370D02*
D03*
X68110Y182677D02*
D03*
X170079Y186614D02*
D03*
X215354Y222835D02*
D03*
X210630Y155905D02*
D03*
X165354Y119685D02*
D03*
X33465Y94882D02*
D03*
X132283Y32283D02*
D03*
X62579Y116595D02*
D03*
X137795Y158268D02*
D03*
D27*
X175984Y35433D02*
D03*
X164567Y34252D02*
D03*
X200787Y92126D02*
D03*
X212205Y93307D02*
D03*
X120472Y208662D02*
D03*
X85039Y180709D02*
D03*
X194488Y202756D02*
D03*
X186220Y139764D02*
D03*
X130709Y92520D02*
D03*
X125197Y96850D02*
D03*
X123228Y74803D02*
D03*
X95360Y75191D02*
D03*
X120472Y64915D02*
D03*
X137402Y84252D02*
D03*
X90158Y79528D02*
D03*
X59842Y81102D02*
D03*
X87008Y128347D02*
D03*
X65354Y132283D02*
D03*
D28*
X50394Y214224D02*
D03*
Y73307D02*
D03*
X49213Y154331D02*
D03*
D29*
X50394Y206323D02*
D03*
Y198425D02*
D03*
Y190524D02*
D03*
Y33807D02*
D03*
Y41709D02*
D03*
Y49606D02*
D03*
Y57508D02*
D03*
Y65405D02*
D03*
X49213Y146429D02*
D03*
Y138531D02*
D03*
Y130630D02*
D03*
D30*
X98504Y193290D02*
D03*
X90630Y57874D02*
D03*
X124336Y144095D02*
D03*
X144336D02*
D03*
D31*
X118504Y193290D02*
D03*
X138504D02*
D03*
X130630Y57874D02*
D03*
X110630D02*
D03*
D32*
X176164Y220669D02*
D03*
X204544Y121850D02*
D03*
D33*
X190354Y209646D02*
D03*
X190354Y132874D02*
D03*
D34*
X104336Y144095D02*
D03*
D35*
X126378Y87918D02*
D03*
D36*
X133465D02*
D03*
X126378Y77092D02*
D03*
X133465D02*
D03*
M02*
